<svg xmlns="http://www.w3.org/2000/svg" viewBox="0 0 1600 1000" preserveAspectRatio="xMidYMid slice">
<!-- Original art for Halo CE Web: a starfield, a nebula, a distant ringworld
arc and a planet's glow. Drawn for this site (CC0, as the project). -->
<defs>
  <radialGradient id="space" cx="50%" cy="35%" r="80%">
    <stop offset="0" stop-color="#0d1a2c"/><stop offset="0.55" stop-color="#070c16"/><stop offset="1" stop-color="#03050a"/>
  </radialGradient>
  <radialGradient id="nebula" cx="72%" cy="22%" r="45%">
    <stop offset="0" stop-color="#2a6f9c" stop-opacity="0.45"/><stop offset="0.5" stop-color="#1b3f6a" stop-opacity="0.18"/><stop offset="1" stop-color="#0b1422" stop-opacity="0"/>
  </radialGradient>
  <radialGradient id="nebula2" cx="18%" cy="30%" r="35%">
    <stop offset="0" stop-color="#3a8f8a" stop-opacity="0.22"/><stop offset="1" stop-color="#0b1422" stop-opacity="0"/>
  </radialGradient>
  <linearGradient id="band" x1="0" y1="0" x2="1" y2="0">
    <stop offset="0" stop-color="#9cc3e4" stop-opacity="0"/>
    <stop offset="0.18" stop-color="#b8d7ee" stop-opacity="0.85"/>
    <stop offset="0.45" stop-color="#7fa37a" stop-opacity="0.9"/>
    <stop offset="0.62" stop-color="#6f9bc4" stop-opacity="0.85"/>
    <stop offset="0.85" stop-color="#c4dcef" stop-opacity="0.7"/>
    <stop offset="1" stop-color="#9cc3e4" stop-opacity="0"/>
  </linearGradient>
  <radialGradient id="planet" cx="50%" cy="0%" r="100%">
    <stop offset="0" stop-color="#e3a25a" stop-opacity="0.95"/><stop offset="0.35" stop-color="#9a4f2a" stop-opacity="0.9"/><stop offset="1" stop-color="#1a0d0a"/>
  </radialGradient>
  <radialGradient id="rim" cx="50%" cy="50%" r="50%">
    <stop offset="0.9" stop-color="#ffcf8a" stop-opacity="0"/><stop offset="0.97" stop-color="#ffcf8a" stop-opacity="0.5"/><stop offset="1" stop-color="#ffcf8a" stop-opacity="0"/>
  </radialGradient>
  <filter id="soft"><feGaussianBlur stdDeviation="2"/></filter>
</defs>
<rect width="1600" height="1000" fill="url(#space)"/>
<rect width="1600" height="1000" fill="url(#nebula)"/>
<rect width="1600" height="1000" fill="url(#nebula2)"/>
<g fill="#ffffff"><circle cx="518" cy="151" r="0.6" opacity="0.3"/><circle cx="857" cy="366" r="0.6" opacity="0.89"/><circle cx="344" cy="86" r="1.3" opacity="0.3"/><circle cx="145" cy="425" r="0.7" opacity="0.91"/><circle cx="1009" cy="583" r="0.6" opacity="0.65"/><circle cx="635" cy="976" r="0.6" opacity="0.64"/><circle cx="213" cy="419" r="0.7" opacity="0.65"/><circle cx="896" cy="682" r="0.7" opacity="0.66"/><circle cx="1022" cy="372" r="0.7" opacity="0.65"/><circle cx="990" cy="496" r="1.3" opacity="0.79"/><circle cx="745" cy="923" r="1.1" opacity="0.46"/><circle cx="1271" cy="699" r="0.9" opacity="0.31"/><circle cx="480" cy="495" r="1.1" opacity="0.76"/><circle cx="461" cy="980" r="0.7" opacity="0.61"/><circle cx="264" cy="342" r="1.6" opacity="0.55"/><circle cx="1539" cy="78" r="1.1" opacity="0.49"/><circle cx="560" cy="497" r="1.6" opacity="0.3"/><circle cx="150" cy="270" r="0.7" opacity="0.29"/><circle cx="1122" cy="647" r="1.6" opacity="0.45"/><circle cx="617" cy="669" r="0.6" opacity="0.91"/><circle cx="569" cy="611" r="1.6" opacity="0.29"/><circle cx="1229" cy="129" r="0.9" opacity="0.53"/><circle cx="1467" cy="497" r="0.8" opacity="0.56"/><circle cx="879" cy="883" r="1.3" opacity="0.85"/><circle cx="445" cy="415" r="1.1" opacity="0.73"/><circle cx="609" cy="231" r="0.7" opacity="0.37"/><circle cx="371" cy="233" r="1.6" opacity="0.83"/><circle cx="292" cy="282" r="0.8" opacity="0.54"/><circle cx="591" cy="566" r="0.8" opacity="0.73"/><circle cx="825" cy="618" r="0.6" opacity="0.57"/><circle cx="1394" cy="952" r="1.3" opacity="0.53"/><circle cx="631" cy="482" r="1.3" opacity="0.29"/><circle cx="108" cy="209" r="0.8" opacity="0.33"/><circle cx="961" cy="102" r="0.8" opacity="0.63"/><circle cx="1518" cy="614" r="0.7" opacity="0.86"/><circle cx="983" cy="149" r="1.0" opacity="0.92"/><circle cx="964" cy="474" r="0.7" opacity="0.84"/><circle cx="1589" cy="466" r="1.6" opacity="0.47"/><circle cx="231" cy="750" r="1.0" opacity="0.59"/><circle cx="1107" cy="516" r="0.9" opacity="0.92"/><circle cx="845" cy="147" r="0.6" opacity="0.78"/><circle cx="477" cy="643" r="0.7" opacity="0.74"/><circle cx="418" cy="367" r="0.8" opacity="0.5"/><circle cx="356" cy="542" r="1.1" opacity="0.7"/><circle cx="981" cy="788" r="0.9" opacity="0.81"/><circle cx="1309" cy="740" r="0.9" opacity="0.39"/><circle cx="788" cy="731" r="0.6" opacity="0.8"/><circle cx="756" cy="194" r="1.1" opacity="0.56"/><circle cx="1499" cy="988" r="1.1" opacity="0.31"/><circle cx="163" cy="470" r="1.1" opacity="0.39"/><circle cx="999" cy="900" r="0.6" opacity="0.59"/><circle cx="1045" cy="800" r="0.7" opacity="0.83"/><circle cx="192" cy="389" r="0.9" opacity="0.58"/><circle cx="286" cy="789" r="1.1" opacity="0.31"/><circle cx="1514" cy="722" r="1.6" opacity="0.53"/><circle cx="1515" cy="725" r="0.8" opacity="0.95"/><circle cx="44" cy="591" r="1.6" opacity="0.81"/><circle cx="234" cy="827" r="1.6" opacity="0.71"/><circle cx="561" cy="549" r="0.8" opacity="0.26"/><circle cx="1279" cy="726" r="0.7" opacity="0.62"/><circle cx="1494" cy="434" r="0.9" opacity="0.83"/><circle cx="338" cy="252" r="1.0" opacity="0.6"/><circle cx="1222" cy="326" r="1.3" opacity="0.83"/><circle cx="97" cy="740" r="1.6" opacity="0.71"/><circle cx="1304" cy="517" r="0.8" opacity="0.62"/><circle cx="838" cy="19" r="1.6" opacity="0.79"/><circle cx="974" cy="776" r="0.8" opacity="0.37"/><circle cx="758" cy="725" r="0.6" opacity="0.48"/><circle cx="829" cy="555" r="0.7" opacity="0.87"/><circle cx="91" cy="191" r="0.6" opacity="0.79"/><circle cx="812" cy="562" r="0.7" opacity="0.56"/><circle cx="980" cy="506" r="0.9" opacity="0.73"/><circle cx="724" cy="533" r="1.6" opacity="0.61"/><circle cx="396" cy="523" r="1.0" opacity="0.9"/><circle cx="1428" cy="203" r="1.6" opacity="0.35"/><circle cx="195" cy="442" r="0.7" opacity="0.72"/><circle cx="685" cy="213" r="1.0" opacity="0.8"/><circle cx="1435" cy="154" r="1.1" opacity="0.35"/><circle cx="1413" cy="968" r="0.9" opacity="0.77"/><circle cx="151" cy="885" r="0.8" opacity="0.94"/><circle cx="1332" cy="161" r="1.3" opacity="0.95"/><circle cx="646" cy="421" r="1.1" opacity="0.47"/><circle cx="1155" cy="19" r="1.6" opacity="0.56"/><circle cx="29" cy="331" r="1.0" opacity="0.61"/><circle cx="103" cy="985" r="0.9" opacity="0.93"/><circle cx="168" cy="266" r="0.6" opacity="0.88"/><circle cx="290" cy="756" r="1.3" opacity="0.84"/><circle cx="1082" cy="946" r="1.3" opacity="0.35"/><circle cx="1471" cy="571" r="1.1" opacity="0.31"/><circle cx="92" cy="688" r="1.3" opacity="0.88"/><circle cx="430" cy="17" r="0.7" opacity="0.81"/><circle cx="134" cy="856" r="0.7" opacity="0.44"/><circle cx="195" cy="12" r="1.3" opacity="0.9"/><circle cx="429" cy="129" r="0.9" opacity="0.91"/><circle cx="1551" cy="262" r="0.8" opacity="0.39"/><circle cx="499" cy="305" r="0.9" opacity="0.45"/><circle cx="800" cy="178" r="1.1" opacity="0.81"/><circle cx="1591" cy="37" r="0.6" opacity="0.76"/><circle cx="882" cy="189" r="1.6" opacity="0.42"/><circle cx="715" cy="658" r="1.3" opacity="0.71"/><circle cx="873" cy="889" r="1.0" opacity="0.73"/><circle cx="1572" cy="343" r="0.8" opacity="0.53"/><circle cx="556" cy="54" r="0.8" opacity="0.26"/><circle cx="1001" cy="880" r="1.3" opacity="0.36"/><circle cx="135" cy="841" r="1.0" opacity="0.67"/><circle cx="1108" cy="45" r="0.8" opacity="0.36"/><circle cx="713" cy="263" r="1.1" opacity="0.93"/><circle cx="875" cy="244" r="1.0" opacity="0.4"/><circle cx="293" cy="335" r="0.7" opacity="0.58"/><circle cx="804" cy="201" r="0.6" opacity="0.31"/><circle cx="1307" cy="144" r="0.6" opacity="0.53"/><circle cx="479" cy="630" r="0.7" opacity="0.66"/><circle cx="847" cy="751" r="1.3" opacity="0.79"/><circle cx="1153" cy="494" r="1.0" opacity="0.76"/><circle cx="1029" cy="44" r="1.3" opacity="0.76"/><circle cx="1300" cy="139" r="0.6" opacity="0.83"/><circle cx="934" cy="893" r="0.9" opacity="0.31"/><circle cx="67" cy="637" r="0.7" opacity="0.51"/><circle cx="722" cy="51" r="0.6" opacity="0.69"/><circle cx="1089" cy="489" r="0.6" opacity="0.57"/><circle cx="112" cy="933" r="0.7" opacity="0.71"/><circle cx="106" cy="737" r="1.0" opacity="0.82"/><circle cx="1354" cy="235" r="0.9" opacity="0.41"/><circle cx="1040" cy="460" r="1.3" opacity="0.3"/><circle cx="1457" cy="287" r="0.6" opacity="0.68"/><circle cx="1028" cy="77" r="0.8" opacity="0.48"/><circle cx="1042" cy="693" r="0.8" opacity="0.26"/><circle cx="97" cy="269" r="0.7" opacity="0.73"/><circle cx="1081" cy="291" r="1.0" opacity="0.58"/><circle cx="746" cy="119" r="0.9" opacity="0.47"/><circle cx="137" cy="473" r="1.0" opacity="0.57"/><circle cx="1312" cy="968" r="1.6" opacity="0.95"/><circle cx="619" cy="917" r="0.9" opacity="0.3"/><circle cx="144" cy="747" r="1.0" opacity="0.92"/><circle cx="212" cy="820" r="1.0" opacity="0.87"/><circle cx="1125" cy="231" r="1.6" opacity="0.53"/><circle cx="255" cy="950" r="1.6" opacity="0.53"/><circle cx="1163" cy="416" r="1.3" opacity="0.47"/><circle cx="1344" cy="2" r="1.1" opacity="0.84"/><circle cx="192" cy="926" r="0.6" opacity="0.88"/><circle cx="464" cy="372" r="1.3" opacity="0.52"/><circle cx="1392" cy="76" r="1.3" opacity="0.78"/><circle cx="1367" cy="281" r="0.6" opacity="0.83"/><circle cx="457" cy="936" r="0.9" opacity="0.93"/><circle cx="698" cy="316" r="1.1" opacity="0.8"/><circle cx="684" cy="29" r="1.3" opacity="0.89"/><circle cx="1505" cy="549" r="0.7" opacity="0.28"/><circle cx="1172" cy="451" r="0.8" opacity="0.7"/><circle cx="458" cy="49" r="0.8" opacity="0.37"/><circle cx="664" cy="282" r="1.0" opacity="0.77"/><circle cx="1562" cy="260" r="0.9" opacity="0.46"/><circle cx="892" cy="394" r="0.8" opacity="0.7"/><circle cx="120" cy="501" r="1.6" opacity="0.64"/><circle cx="725" cy="333" r="1.6" opacity="0.55"/><circle cx="876" cy="244" r="0.8" opacity="0.49"/><circle cx="146" cy="239" r="1.0" opacity="0.82"/><circle cx="323" cy="20" r="1.3" opacity="0.52"/><circle cx="1193" cy="210" r="1.0" opacity="0.49"/><circle cx="99" cy="278" r="1.1" opacity="0.34"/><circle cx="805" cy="630" r="0.9" opacity="0.31"/><circle cx="1435" cy="385" r="1.6" opacity="0.55"/><circle cx="499" cy="814" r="0.6" opacity="0.34"/><circle cx="680" cy="764" r="1.6" opacity="0.93"/><circle cx="784" cy="73" r="1.6" opacity="0.93"/><circle cx="398" cy="109" r="0.8" opacity="0.36"/><circle cx="1555" cy="109" r="1.6" opacity="0.31"/><circle cx="1243" cy="1" r="0.8" opacity="0.41"/><circle cx="1472" cy="646" r="1.0" opacity="0.92"/><circle cx="1002" cy="528" r="1.3" opacity="0.74"/><circle cx="179" cy="70" r="0.9" opacity="0.52"/><circle cx="358" cy="601" r="0.6" opacity="0.63"/><circle cx="1594" cy="279" r="1.1" opacity="0.7"/><circle cx="1414" cy="475" r="0.9" opacity="0.63"/><circle cx="47" cy="412" r="1.0" opacity="0.29"/><circle cx="311" cy="885" r="1.3" opacity="0.31"/><circle cx="365" cy="424" r="1.1" opacity="0.41"/><circle cx="55" cy="338" r="1.3" opacity="0.5"/><circle cx="634" cy="7" r="1.0" opacity="0.77"/><circle cx="808" cy="205" r="0.9" opacity="0.47"/><circle cx="1312" cy="231" r="0.9" opacity="0.44"/><circle cx="1423" cy="109" r="1.6" opacity="0.68"/><circle cx="1434" cy="485" r="0.6" opacity="0.91"/><circle cx="234" cy="393" r="0.9" opacity="0.27"/><circle cx="954" cy="415" r="0.6" opacity="0.38"/><circle cx="719" cy="712" r="1.1" opacity="0.76"/><circle cx="1596" cy="932" r="1.1" opacity="0.38"/><circle cx="1044" cy="525" r="1.6" opacity="0.27"/><circle cx="1063" cy="379" r="1.1" opacity="0.94"/><circle cx="708" cy="109" r="0.7" opacity="0.45"/><circle cx="562" cy="956" r="0.7" opacity="0.64"/><circle cx="1214" cy="380" r="1.0" opacity="0.83"/><circle cx="692" cy="49" r="1.6" opacity="0.39"/><circle cx="866" cy="446" r="1.1" opacity="0.5"/><circle cx="1435" cy="30" r="1.3" opacity="0.42"/><circle cx="1001" cy="405" r="1.3" opacity="0.27"/><circle cx="100" cy="920" r="1.0" opacity="0.39"/><circle cx="101" cy="606" r="1.1" opacity="0.44"/><circle cx="1532" cy="617" r="1.0" opacity="0.77"/><circle cx="1103" cy="924" r="1.0" opacity="0.25"/><circle cx="1209" cy="916" r="0.7" opacity="0.27"/><circle cx="374" cy="475" r="1.6" opacity="0.92"/><circle cx="618" cy="251" r="1.3" opacity="0.82"/><circle cx="212" cy="497" r="0.6" opacity="0.81"/><circle cx="1182" cy="823" r="0.8" opacity="0.68"/><circle cx="524" cy="320" r="1.1" opacity="0.8"/><circle cx="953" cy="512" r="1.3" opacity="0.78"/><circle cx="396" cy="65" r="0.6" opacity="0.59"/><circle cx="871" cy="161" r="1.3" opacity="0.87"/><circle cx="1581" cy="265" r="0.7" opacity="0.4"/><circle cx="674" cy="988" r="1.6" opacity="0.37"/><circle cx="213" cy="461" r="0.9" opacity="0.77"/><circle cx="1355" cy="664" r="0.7" opacity="0.8"/><circle cx="470" cy="279" r="1.0" opacity="0.51"/><circle cx="1181" cy="199" r="0.9" opacity="0.38"/><circle cx="377" cy="281" r="0.9" opacity="0.48"/><circle cx="634" cy="992" r="0.9" opacity="0.7"/><circle cx="161" cy="464" r="0.6" opacity="0.32"/><circle cx="760" cy="819" r="1.6" opacity="0.89"/><circle cx="65" cy="294" r="0.7" opacity="0.29"/><circle cx="961" cy="828" r="0.9" opacity="0.9"/><circle cx="596" cy="866" r="1.6" opacity="0.67"/><circle cx="1240" cy="665" r="0.6" opacity="0.32"/><circle cx="954" cy="620" r="0.9" opacity="0.28"/><circle cx="544" cy="44" r="1.0" opacity="0.28"/><circle cx="1172" cy="914" r="0.6" opacity="0.82"/><circle cx="654" cy="372" r="1.0" opacity="0.3"/><circle cx="50" cy="496" r="1.6" opacity="0.29"/><circle cx="162" cy="395" r="0.8" opacity="0.7"/><circle cx="146" cy="164" r="1.0" opacity="0.54"/><circle cx="453" cy="308" r="0.6" opacity="0.47"/><circle cx="906" cy="357" r="1.3" opacity="0.26"/><circle cx="1227" cy="802" r="0.9" opacity="0.52"/><circle cx="648" cy="942" r="1.3" opacity="0.88"/><circle cx="678" cy="820" r="1.3" opacity="0.65"/><circle cx="584" cy="773" r="0.8" opacity="0.26"/><circle cx="882" cy="641" r="1.3" opacity="0.31"/><circle cx="996" cy="371" r="0.8" opacity="0.35"/><circle cx="453" cy="521" r="0.7" opacity="0.33"/><circle cx="785" cy="805" r="0.9" opacity="0.46"/><circle cx="1340" cy="43" r="1.6" opacity="0.47"/><circle cx="972" cy="636" r="0.7" opacity="0.88"/><circle cx="993" cy="825" r="0.8" opacity="0.7"/><circle cx="1371" cy="621" r="0.9" opacity="0.83"/><circle cx="293" cy="218" r="1.3" opacity="0.91"/><circle cx="250" cy="359" r="0.8" opacity="0.42"/><circle cx="1160" cy="897" r="0.6" opacity="0.87"/><circle cx="1348" cy="672" r="1.1" opacity="0.33"/><circle cx="959" cy="550" r="1.0" opacity="0.7"/><circle cx="493" cy="249" r="1.3" opacity="0.71"/><circle cx="715" cy="438" r="0.6" opacity="0.25"/><circle cx="1578" cy="465" r="1.6" opacity="0.78"/><circle cx="1248" cy="458" r="0.8" opacity="0.82"/><circle cx="641" cy="67" r="1.1" opacity="0.55"/><circle cx="147" cy="442" r="0.6" opacity="0.28"/><circle cx="208" cy="922" r="1.1" opacity="0.79"/><circle cx="818" cy="54" r="1.3" opacity="0.71"/><circle cx="1255" cy="26" r="0.7" opacity="0.95"/><circle cx="1171" cy="815" r="0.9" opacity="0.34"/><circle cx="1417" cy="288" r="0.8" opacity="0.73"/><circle cx="1154" cy="221" r="1.1" opacity="0.68"/><circle cx="404" cy="324" r="1.0" opacity="0.88"/><circle cx="730" cy="254" r="1.6" opacity="0.4"/><circle cx="421" cy="506" r="1.1" opacity="0.51"/><circle cx="318" cy="403" r="1.0" opacity="0.73"/><circle cx="1433" cy="169" r="1.0" opacity="0.33"/><circle cx="849" cy="636" r="1.1" opacity="0.93"/><circle cx="725" cy="521" r="0.7" opacity="0.43"/><circle cx="857" cy="857" r="1.1" opacity="0.44"/><circle cx="1585" cy="577" r="1.1" opacity="0.48"/><circle cx="130" cy="230" r="0.6" opacity="0.46"/><circle cx="826" cy="310" r="1.1" opacity="0.76"/><circle cx="1195" cy="222" r="1.0" opacity="0.68"/><circle cx="692" cy="513" r="0.6" opacity="0.34"/><circle cx="364" cy="653" r="0.6" opacity="0.29"/><circle cx="907" cy="304" r="1.1" opacity="0.62"/><circle cx="661" cy="301" r="0.8" opacity="0.39"/><circle cx="998" cy="475" r="0.8" opacity="0.26"/><circle cx="1282" cy="707" r="1.6" opacity="0.32"/><circle cx="1021" cy="871" r="1.0" opacity="0.53"/><circle cx="423" cy="11" r="1.1" opacity="0.67"/><circle cx="926" cy="602" r="1.6" opacity="0.42"/><circle cx="1446" cy="44" r="0.6" opacity="0.53"/><circle cx="380" cy="58" r="0.7" opacity="0.26"/><circle cx="881" cy="941" r="0.8" opacity="0.54"/><circle cx="829" cy="643" r="1.3" opacity="0.82"/><circle cx="279" cy="309" r="1.0" opacity="0.69"/><circle cx="1590" cy="724" r="1.6" opacity="0.75"/><circle cx="10" cy="844" r="1.6" opacity="0.31"/><circle cx="1049" cy="175" r="0.7" opacity="0.43"/><circle cx="1030" cy="123" r="1.0" opacity="0.75"/><circle cx="426" cy="554" r="1.3" opacity="0.73"/><circle cx="1468" cy="972" r="1.0" opacity="0.7"/><circle cx="1544" cy="217" r="0.6" opacity="0.37"/><circle cx="1448" cy="842" r="0.9" opacity="0.91"/><circle cx="1194" cy="327" r="1.3" opacity="0.48"/><circle cx="383" cy="908" r="1.6" opacity="0.58"/><circle cx="849" cy="6" r="0.6" opacity="0.56"/><circle cx="1159" cy="570" r="1.0" opacity="0.8"/><circle cx="627" cy="585" r="0.8" opacity="0.35"/><circle cx="43" cy="107" r="0.8" opacity="0.49"/><circle cx="227" cy="29" r="0.6" opacity="0.35"/><circle cx="1030" cy="43" r="0.7" opacity="0.77"/><circle cx="105" cy="590" r="1.1" opacity="0.39"/><circle cx="1527" cy="534" r="0.7" opacity="0.87"/><circle cx="1209" cy="711" r="1.3" opacity="0.32"/><circle cx="329" cy="112" r="0.6" opacity="0.91"/><circle cx="1458" cy="754" r="0.7" opacity="0.83"/><circle cx="1010" cy="287" r="0.7" opacity="0.34"/><circle cx="1267" cy="646" r="1.0" opacity="0.47"/><circle cx="678" cy="21" r="1.0" opacity="0.9"/><circle cx="77" cy="760" r="1.1" opacity="0.79"/><circle cx="963" cy="476" r="1.0" opacity="0.68"/><circle cx="50" cy="413" r="1.3" opacity="0.61"/><circle cx="157" cy="469" r="0.6" opacity="0.63"/><circle cx="347" cy="862" r="0.7" opacity="0.65"/><circle cx="459" cy="436" r="0.9" opacity="0.45"/><circle cx="1201" cy="54" r="1.1" opacity="0.59"/><circle cx="786" cy="797" r="0.8" opacity="0.93"/><circle cx="948" cy="957" r="1.0" opacity="0.65"/><circle cx="254" cy="815" r="0.9" opacity="0.6"/><circle cx="176" cy="637" r="0.7" opacity="0.59"/><circle cx="1586" cy="561" r="0.7" opacity="0.69"/><circle cx="569" cy="401" r="1.3" opacity="0.87"/><circle cx="1192" cy="422" r="0.6" opacity="0.51"/><circle cx="485" cy="428" r="0.8" opacity="0.52"/><circle cx="1414" cy="234" r="1.6" opacity="0.34"/><circle cx="951" cy="689" r="0.6" opacity="0.49"/><circle cx="523" cy="155" r="1.6" opacity="0.71"/><circle cx="1187" cy="170" r="1.6" opacity="0.73"/><circle cx="412" cy="231" r="1.1" opacity="0.57"/><circle cx="1416" cy="238" r="0.9" opacity="0.44"/><circle cx="1208" cy="827" r="0.8" opacity="0.76"/><circle cx="1560" cy="723" r="1.1" opacity="0.36"/><circle cx="525" cy="189" r="0.7" opacity="0.37"/><circle cx="1053" cy="195" r="0.8" opacity="0.94"/><circle cx="1272" cy="733" r="1.3" opacity="0.44"/><circle cx="175" cy="911" r="1.0" opacity="0.39"/><circle cx="621" cy="34" r="1.3" opacity="0.85"/><circle cx="698" cy="222" r="1.0" opacity="0.57"/><circle cx="227" cy="604" r="1.3" opacity="0.25"/><circle cx="388" cy="853" r="1.3" opacity="0.84"/><circle cx="1069" cy="652" r="0.9" opacity="0.73"/><circle cx="1026" cy="454" r="1.1" opacity="0.43"/><circle cx="1121" cy="895" r="0.9" opacity="0.8"/><circle cx="1141" cy="630" r="1.0" opacity="0.84"/><circle cx="772" cy="20" r="1.3" opacity="0.61"/><circle cx="1058" cy="873" r="1.1" opacity="0.79"/><circle cx="622" cy="490" r="0.7" opacity="0.28"/><circle cx="869" cy="161" r="0.9" opacity="0.61"/><circle cx="162" cy="575" r="0.9" opacity="0.75"/><circle cx="820" cy="639" r="1.1" opacity="0.62"/><circle cx="657" cy="948" r="0.9" opacity="0.94"/><circle cx="294" cy="514" r="0.7" opacity="0.76"/><circle cx="982" cy="638" r="1.0" opacity="0.44"/><circle cx="639" cy="13" r="1.3" opacity="0.89"/><circle cx="1006" cy="675" r="1.0" opacity="0.33"/><circle cx="486" cy="400" r="0.9" opacity="0.95"/><circle cx="1537" cy="462" r="0.8" opacity="0.34"/><circle cx="1243" cy="810" r="0.9" opacity="0.58"/><circle cx="899" cy="226" r="0.8" opacity="0.5"/><circle cx="1022" cy="819" r="1.3" opacity="0.58"/><circle cx="471" cy="548" r="0.8" opacity="0.8"/><circle cx="751" cy="784" r="0.9" opacity="0.44"/><circle cx="602" cy="254" r="1.3" opacity="0.73"/><circle cx="771" cy="805" r="1.0" opacity="0.5"/><circle cx="1047" cy="320" r="1.6" opacity="0.55"/><circle cx="1020" cy="659" r="1.1" opacity="0.36"/><circle cx="485" cy="385" r="0.7" opacity="0.83"/><circle cx="1449" cy="784" r="0.8" opacity="0.62"/><circle cx="552" cy="582" r="0.6" opacity="0.4"/><circle cx="115" cy="293" r="0.7" opacity="0.65"/><circle cx="1367" cy="186" r="1.6" opacity="0.49"/><circle cx="244" cy="904" r="0.8" opacity="0.68"/><circle cx="1101" cy="977" r="0.7" opacity="0.72"/><circle cx="1430" cy="788" r="1.0" opacity="0.39"/><circle cx="1108" cy="531" r="1.6" opacity="0.72"/><circle cx="187" cy="118" r="1.3" opacity="0.41"/><circle cx="223" cy="493" r="0.6" opacity="0.59"/><circle cx="1449" cy="700" r="0.9" opacity="0.6"/><circle cx="863" cy="863" r="0.6" opacity="0.36"/><circle cx="513" cy="696" r="1.6" opacity="0.72"/><circle cx="1345" cy="375" r="1.3" opacity="0.95"/><circle cx="1082" cy="181" r="1.1" opacity="0.7"/><circle cx="46" cy="610" r="1.1" opacity="0.82"/><circle cx="150" cy="484" r="0.8" opacity="0.27"/><circle cx="1149" cy="625" r="1.1" opacity="0.32"/><circle cx="1054" cy="341" r="0.9" opacity="0.45"/><circle cx="547" cy="252" r="0.6" opacity="0.83"/><circle cx="469" cy="828" r="1.3" opacity="0.48"/><circle cx="1575" cy="873" r="1.1" opacity="0.93"/><circle cx="1047" cy="792" r="1.1" opacity="0.38"/><circle cx="1141" cy="128" r="0.7" opacity="0.8"/><circle cx="64" cy="723" r="1.3" opacity="0.63"/><circle cx="80" cy="300" r="0.6" opacity="0.28"/><circle cx="1315" cy="475" r="0.6" opacity="0.8"/><circle cx="1456" cy="612" r="0.8" opacity="0.69"/><circle cx="1114" cy="596" r="0.7" opacity="0.4"/><circle cx="1067" cy="458" r="0.8" opacity="0.32"/><circle cx="290" cy="37" r="0.7" opacity="0.89"/><circle cx="1049" cy="369" r="0.8" opacity="0.8"/><circle cx="899" cy="258" r="1.0" opacity="0.38"/><circle cx="55" cy="20" r="0.6" opacity="0.6"/><circle cx="835" cy="825" r="1.3" opacity="0.65"/><circle cx="1470" cy="446" r="0.6" opacity="0.73"/><circle cx="950" cy="993" r="0.8" opacity="0.58"/><circle cx="660" cy="102" r="1.6" opacity="0.4"/><circle cx="243" cy="16" r="0.6" opacity="0.26"/><circle cx="1071" cy="987" r="0.7" opacity="0.4"/><circle cx="194" cy="472" r="1.0" opacity="0.75"/><circle cx="388" cy="734" r="0.8" opacity="0.9"/><circle cx="585" cy="747" r="0.8" opacity="0.76"/><circle cx="135" cy="629" r="1.6" opacity="0.57"/><circle cx="1492" cy="254" r="0.6" opacity="0.75"/><circle cx="18" cy="15" r="0.7" opacity="0.52"/><circle cx="500" cy="600" r="1.6" opacity="0.68"/><circle cx="506" cy="949" r="1.6" opacity="0.58"/><circle cx="266" cy="966" r="0.7" opacity="0.5"/><circle cx="1032" cy="630" r="1.3" opacity="0.58"/><circle cx="1245" cy="453" r="1.0" opacity="0.8"/><circle cx="907" cy="292" r="0.6" opacity="0.69"/></g>
<g transform="rotate(-14 800 560)">
  <ellipse cx="800" cy="560" rx="980" ry="190" fill="none" stroke="url(#band)" stroke-width="22" filter="url(#soft)" opacity="0.55"/>
  <ellipse cx="800" cy="560" rx="980" ry="190" fill="none" stroke="url(#band)" stroke-width="9"/>
  <ellipse cx="800" cy="560" rx="980" ry="190" fill="none" stroke="#dff0ff" stroke-width="1.2" stroke-opacity="0.55"/>
</g>
<circle cx="260" cy="1420" r="620" fill="url(#planet)"/>
<circle cx="260" cy="1420" r="626" fill="url(#rim)"/>
</svg>